<svg id="Layer_1" data-name="Layer 1" xmlns="http://www.w3.org/2000/svg" viewBox="0 0 308 75"><defs><style>.cls-1{fill:#fff;}.cls-2{fill:#901838;}.cls-3{fill:#f3f3f3;}</style></defs><title>Logo for history website </title><rect id="Background" class="cls-1" x="0.25" width="307.75" height="75"/><g id="Qatar_History" data-name="Qatar History"><rect class="cls-2" x="288.05" y="23.02" width="1.78" height="1.25"/><rect class="cls-2" x="290.64" y="23.02" width="1.78" height="1.25"/><rect class="cls-2" x="216.21" y="19.99" width="1.78" height="1.25"/><rect class="cls-2" x="218.8" y="19.99" width="1.78" height="1.25"/><rect class="cls-2" x="250.75" y="34.79" width="1.78" height="1.25"/><rect class="cls-2" x="253.35" y="34.79" width="1.78" height="1.25"/><rect class="cls-2" x="166.73" y="37.49" width="1.78" height="1.25"/><polygon class="cls-2" points="171.09 38.74 169.32 38.74 169.32 37.49 171.11 37.49 171.09 38.74"/><rect class="cls-2" x="243.74" y="24.37" width="1.78" height="1.25"/><path class="cls-2" d="M241.84,29.3H237.6l1.61-2.57h10.85V29.3h-1.75v1.84h9.34V26.5L260,24.28v9.4H246V29.29h0c-2.8,0-6,3.18-6,7.14a5.32,5.32,0,0,0,1.16,3.73c1.71,1.93,5.25,2.24,8.37.31l-.26,2a9.62,9.62,0,0,1-2,.71,10,10,0,0,1-2.22.28c-.45,0-4.15-.07-6.08-2.94a6.54,6.54,0,0,1-1.07-3.72c0-4.19,3.34-7,3.92-7.46" transform="translate(0 0)"/><polygon class="cls-2" points="291.52 31.14 295.48 31.14 295.48 17.76 297.8 15.6 297.8 33.68 279.95 33.68 279.95 15.6 282.27 17.79 282.27 31.14 289.2 31.14 289.2 25.39 291.52 27.53 291.52 31.14"/><polygon class="cls-2" points="299.52 15.6 299.52 33.68 301.83 33.68 301.83 17.79 299.52 15.6"/><polygon class="cls-2" points="229.94 15.6 229.94 33.68 232.25 33.68 232.25 17.79 229.94 15.6"/><path class="cls-2" d="M181.55,25.22h-7.27s-1.46-1.32,0-3.67h8.36L181,19h-8.17a7.69,7.69,0,0,0-.31,8.8l6.41,0s-2.78,5.78-9.28,6a10.64,10.64,0,0,1-2.11-.13c-7-1.1-5.51-10.08-5.51-10.08l-2.76,1.35s-1,9.66,7.57,11.29a10,10,0,0,0,1.82.16c5.92,0,12.07-3.09,13.93-11.15Z" transform="translate(0 0)"/><path class="cls-2" d="M275.77,27.5l2.32,2.17v3.77a.88.88,0,0,1-.11.42,9.38,9.38,0,0,1-8.7,5c-5.41,0-8.18-2-8.52-2.56.82-.84,1.14-1.15,1.64-1.68.19.34,2.24,1.93,6.88,1.93,3.88-.12,5.52-1.83,6.44-4.07a1.91,1.91,0,0,0,0-.48C275.78,29.43,275.77,30.12,275.77,27.5Z" transform="translate(0 0)"/><path class="cls-2" d="M219.63,28.9v2.24H211V26.47h-7.6V17.7l-2.32-2.1V31.14h-3.7V29.79L195,27.63s0,4.87-.07,5c-.28.94-1.47,3.95-6.11,4.06-5.63,0-7.2-1.86-7.2-1.86L180,36.47c1.6,1.79,6.61,2.8,9.38,2.52,6-.59,7.53-4.32,7.95-5.31h30.87V15.6l-2.32,2.16V31.14h-3.84V22.35h-7.38V28.9Zm0-2.14h-2.87V24.5h2.87Zm-11,4.38h-5.24V28.62h5.24Z" transform="translate(0 0)"/></g><g id="Qatar_History_En" data-name="Qatar History En"><path class="cls-2" d="M171.78,58.24a1.77,1.77,0,0,1-1.05-1,5.81,5.81,0,0,0,1.14-3.51V46.78A4.74,4.74,0,0,0,168.35,42a10.36,10.36,0,0,0-5.48-.1,4.65,4.65,0,0,0-3.52,4.74v6.93h0a6.17,6.17,0,0,0,3.52,5.15,8.19,8.19,0,0,0,5.43.11,3.7,3.7,0,0,0,.86-.32,3,3,0,0,0,2.19,1.54,2.22,2.22,0,0,0,1.52-.31l.29-1.7C172.39,58.29,172.18,58.37,171.78,58.24Zm-5.92-1a6.28,6.28,0,0,1-.75,0,3.73,3.73,0,0,1-2.17-1.09,6.44,6.44,0,0,1-1.29-4.16V48.69a6.26,6.26,0,0,1,.8-3.69,3.24,3.24,0,0,1,3-1.24h.46a3.56,3.56,0,0,1,2.83,1.3,7,7,0,0,1,.8,3.63v3.24a7.4,7.4,0,0,1-.71,3.8C168.08,56.87,167.58,57,165.86,57.2Z" transform="translate(0 0)"/><path class="cls-2" d="M179,51" transform="translate(0 0)"/><path class="cls-2" d="M262.92,55.3c0,3.41,3.69,1.84,3.69,1.84l.23,1.8c-6,1.76-6.12-3.27-6.12-3.27V48.81h-1.36V47.14h1.36V46l2.2-2.23v3.4h3.65V48.8h-3.65" transform="translate(0 0)"/><path class="cls-2" d="M191,48.88h10.14a5.31,5.31,0,0,1,2.18.23,2.72,2.72,0,0,1,1.21,2.54,6.83,6.83,0,0,0-2.84-.15c-5.76,1.28-4,5.58-4,5.58a4.53,4.53,0,0,0,.7,1.06,3,3,0,0,0,1.18.85c2.78,1.12,5.14-1.26,5.14-1.26a2.68,2.68,0,0,0,2.8,1.53v-1c-.9-.55-.87-2-.87-2.22V51.25a3.74,3.74,0,0,0-3.33-4,14.2,14.2,0,0,0-1.85-.13H191V43.81L188.89,46v1.1h-1.37v1.74h1.37v6.85S189,60.54,195,59l-.24-1.81S191,58.77,191,55.37m13.53.68a3.58,3.58,0,0,1-3.56,1.5c-1.65-.18-1.43-1.94-1.43-1.94.75-3.72,5-2.36,5-2.36Z" transform="translate(0 0)"/><path class="cls-2" d="M184.83,56V51.23a3.72,3.72,0,0,0-3.34-4,12.1,12.1,0,0,0-1.85-.11h-4.06l2.17,1.72h1.61a5.31,5.31,0,0,1,2.18.23,2.55,2.55,0,0,1,1.22,2.46,6,6,0,0,0-2.85-.07c-5.76,1.28-4,5.58-4,5.58a4.41,4.41,0,0,0,.69,1.06,3.11,3.11,0,0,0,1.18.85c2.78,1.12,5.14-1.26,5.14-1.26a2.7,2.7,0,0,0,2.81,1.53v-1C184.79,57.67,184.84,56.23,184.83,56Zm-2.07.07a3.58,3.58,0,0,1-3.57,1.49c-1.64-.17-1.43-1.93-1.43-1.93.75-3.72,5-2.36,5-2.36Z" transform="translate(0 0)"/><polygon class="cls-2" points="212.71 52.62 212.71 59.29 210.51 59.29 210.51 47.14 212.71 47.14 212.71 50.42 215.48 48.22 215.48 50.42 212.71 52.62"/><polygon class="cls-2" points="286.58 52.61 286.58 59.3 284.38 59.3 284.38 47.14 286.58 47.14 286.58 50.41 289.36 48.21 289.36 50.41 286.58 52.61"/><polygon class="cls-2" points="223.15 59.3 223.15 41.61 225.35 43.81 225.35 49.59 232.3 49.59 232.3 46.04 234.5 43.81 234.5 59.3 232.3 59.3 232.3 51.55 225.35 51.55 225.35 59.3 223.15 59.3"/><polygon class="cls-2" points="238.32 59.3 238.32 47.14 240.52 49.56 240.52 59.3 238.32 59.3"/><polygon class="cls-2" points="238.32 46.03 238.32 43.81 240.52 46.03 240.52 48.24 238.32 46.03"/><path class="cls-2" d="M254.43,54.07a3.5,3.5,0,0,1,0,3.55h-8l-2,1.68h11.73a8,8,0,0,0,0-6.88h-9.26a3.49,3.49,0,0,1,0-3.54H255l2-1.67H245.12a7.84,7.84,0,0,0,0,6.87" transform="translate(0 0)"/><path class="cls-2" d="M277.36,47.14h-4a3.44,3.44,0,0,0-3.39,3.44v5.24a3.49,3.49,0,0,0,3.48,3.48h4A3.31,3.31,0,0,0,280.75,56V50.58A3.44,3.44,0,0,0,277.36,47.14Zm1.44,7a3.42,3.42,0,0,1-3.28,3.39h-.29A3.7,3.7,0,0,1,272.16,55a3.86,3.86,0,0,1-.2-1.31V52.41A3.59,3.59,0,0,1,275.23,49h.29a3.61,3.61,0,0,1,3.28,3.39Z" transform="translate(0 0)"/><polygon class="cls-2" points="294.78 48.83 294.78 52.32 299.63 52.33 299.63 48.83 301.83 47.14 301.83 59.3 292.58 59.3 294.72 57.56 299.63 57.56 299.63 54.06 292.58 54.06 292.58 47.14 294.78 48.83"/></g><polygon class="cls-2" points="0 0 151.84 0.08 141.04 4.2 151.84 8.41 141.04 12.54 151.83 16.69 140.96 20.9 151.84 25.07 140.99 29.17 151.86 33.38 140.99 37.54 151.83 41.68 141.02 45.84 151.8 50.01 141.01 54.14 151.83 58.35 141.04 62.52 151.8 66.64 141.02 70.81 151.84 75 0 74.99 0 0"/><g id="Katara"><polygon class="cls-3" points="45.38 35.43 45.38 22.65 42.41 22.65 42.41 32.68 21.76 32.68 21.77 35.43 45.38 35.43"/><rect class="cls-3" x="13.25" y="14.49" width="2.75" height="20.95"/><rect class="cls-3" x="83.6" y="16.73" width="4.53" height="2.6"/><rect class="cls-3" x="89.05" y="16.73" width="4.53" height="2.6"/><path class="cls-3" d="M50.13,56.73V49.86s.13-4.63-5.19-5l-7.28-.19-8.53-.07-7,.1A5.14,5.14,0,0,0,18.28,47L16,50.32V38.71H13.25V60.43H16V54.28l2.87-4,6.33,10.11h3.14L20.85,48a2.52,2.52,0,0,1,2.36-1.1c1.82,0,5.92-.1,5.92-.1h8.53l6.85.17c3.55,0,2.94,3.65,2.94,3.65-2-1.08-5,.12-5,.12-5.1,2.29-4.71,5.94-3.14,8a5.13,5.13,0,0,0,3.14,1.72c3.87.19,5.2-1.92,5.2-1.92.87,2.35,3.69,1.89,3.69,1.89V59.09A3.33,3.33,0,0,1,50.13,56.73Zm-2.63-.48a5.43,5.43,0,0,1-2.87,1.88c-4.59.57-3.52-3.34-3.52-3.34,1.53-3.74,6.39-2.25,6.39-2.25Z" transform="translate(0 0)"/><path class="cls-3" d="M62.76,47h7.7s8.11-.29,12.79-.08a5.75,5.75,0,0,1,2.47.38,3.3,3.3,0,0,1,1.48,3.27,8.52,8.52,0,0,0-3.57-.21c-7.37,1.64-5.16,7.14-5.16,7.14a5.52,5.52,0,0,0,.89,1.36,4,4,0,0,0,1.5,1.09c3.57,1.43,6.58-1.62,6.58-1.62a3.46,3.46,0,0,0,3.6,2V59c-1.16-.7-1.09-2.58-1.1-2.85V56c0-.11,0-.9-.07-6-.05-3.5-2.32-4.86-4.22-5.11a18.43,18.43,0,0,0-2.37-.17H62.89l0-4.28-2.78,1.07v3.25H58.36v2.1h1.75v8.85s-.23,6.13,7.83,4.19l-.3-2.31s-4.88,2-4.88-2.35m24.51,1.07a4.56,4.56,0,0,1-4.56,1.91,2.14,2.14,0,0,1-1.83-2.48c1-4.75,6.39-3,6.39-3Z" transform="translate(0 0)"/><path class="cls-3" d="M122.83,17.15,109.73,25c-.39.33-1.06.81-1.17,1.37a1.5,1.5,0,0,0,.8,1.59c2.62,1.52,5.57,3.2,8.19,4.71H90V28.5H87v4.18H53.49V15.13l-3,1.17V35.43H124.4l.75-1.65-12.22-7.37,8.56-5.25Z" transform="translate(0 0)"/><path class="cls-3" d="M124.77,56.06V50a5.19,5.19,0,0,0-5.54-5.13H105.87A4,4,0,0,0,102,47.3V44.66H99.22V60.34H102V50.79a2.56,2.56,0,0,1,.08-.67A3.89,3.89,0,0,1,105.89,47h7.29s1.2,0,5.21-.11c4.24-.08,3.68,3.7,3.68,3.7a7.48,7.48,0,0,0-6.13.62C112.15,54,113.07,57,113.07,57a4.78,4.78,0,0,0,1.56,2.36c3.59,2.63,7.31-.57,7.7-1,.66,2.33,3.61,1.93,3.61,1.93V58.88S124.77,58.8,124.77,56.06Zm-2.72,0s-2.2,2.91-5.11,1.74c0,0-3-1.77.21-4.79a4.92,4.92,0,0,1,4.9-.62Z" transform="translate(0 0)"/></g></svg>